<svg width="128" height="128" viewBox="0 0 128 128" fill="none" xmlns="http://www.w3.org/2000/svg">
  <rect width="128" height="128" rx="28" fill="#0F172A"/>
  <path d="M34 40C34 34.4772 38.4772 30 44 30H84C89.5228 30 94 34.4772 94 40V88C94 93.5228 89.5228 98 84 98H44C38.4772 98 34 93.5228 34 88V40Z" fill="#F8FAFC"/>
  <path d="M52 44V84" stroke="#0F172A" stroke-width="10" stroke-linecap="round"/>
  <path d="M64 44C72.8366 44 80 51.1634 80 60C80 68.8366 72.8366 76 64 76" stroke="#0F172A" stroke-width="10" stroke-linecap="round"/>
  <path d="M64 76C55.1634 76 48 83.1634 48 92" stroke="#0F172A" stroke-width="10" stroke-linecap="round"/>
</svg>
